<svg xmlns="http://www.w3.org/2000/svg" viewBox="0 0 101.16 101.16"><defs><style>.cls-1{fill:#ffc3d0;}.cls-1,.cls-2{fill-rule:evenodd;}.cls-2{fill:#e03353;}</style></defs><g id="Layer_2" data-name="Layer 2"><g id="Layer_1-2" data-name="Layer 1"><path class="cls-1" d="M50.58,0A50.58,50.58,0,1,1,0,50.58,50.58,50.58,0,0,1,50.58,0Z"/><path class="cls-2" d="M69.74,56,68,57.75a.12.12,0,0,0,0,.09v13A1.11,1.11,0,0,1,66.83,72H34.13A1.11,1.11,0,0,1,33,70.86V34.34h6.43A2.34,2.34,0,0,0,41.79,32V25.5h25a1.11,1.11,0,0,1,1.11,1.11V41a.12.12,0,0,0,.08.11.13.13,0,0,0,.13,0l1.76-1.77a.09.09,0,0,0,0-.08V26.61a3.12,3.12,0,0,0-3.12-3.11H40.94a.11.11,0,0,0-.08,0l-9.81,9.81a.11.11,0,0,0,0,.09V70.86A3.12,3.12,0,0,0,34.13,74h32.7A3.12,3.12,0,0,0,70,70.86V56.08a.13.13,0,0,0-.08-.12A.13.13,0,0,0,69.74,56ZM61.33,32.12h-13a1,1,0,0,0,0,2h13a1,1,0,0,0,0-2Zm0,7.4H39.63a1,1,0,0,0,0,2h21.7a1,1,0,0,0,0-2Zm1,8.4a1,1,0,0,0-1-1H39.63a1,1,0,0,0,0,2h21.7A1,1,0,0,0,62.33,47.92Zm-7.64,7.4a1,1,0,0,0-1-1H39.63a1,1,0,0,0,0,2H53.69A1,1,0,0,0,54.69,55.32ZM39.63,61.71a1,1,0,0,0,0,2h11a1,1,0,0,0,0-2ZM76.87,42.94l-2.35-2.35a1.64,1.64,0,0,0-2.3.19l-2.34,2.34,4.46,4.46,2.34-2.34A1.64,1.64,0,0,0,76.87,42.94ZM57.27,55.73l4.46,4.45,11.51-11.5-4.46-4.46Zm3.36,5.55-4.46-4.46-1.09,1.1L53,64.43l6.52-2.05Z"/></g></g></svg>