<svg xmlns="http://www.w3.org/2000/svg" viewBox="0 0 72 72"><defs><style>.cls-1{fill:#ffc3d0;fill-rule:evenodd;}.cls-2{fill:#e03353;}</style></defs><g id="Layer_2" data-name="Layer 2"><g id="Layer_1-2" data-name="Layer 1"><path class="cls-1" d="M36,0A36,36,0,1,1,0,36,36,36,0,0,1,36,0Z"/><path class="cls-2" d="M41.91,39.92l-1.16-1.16V35.41a9.23,9.23,0,0,0,2.93-3.23,3.47,3.47,0,0,0,2.13-1,2.47,2.47,0,0,0,.67-1.09,2.9,2.9,0,0,0,2.14-.86c.55-.61.55-1.46.55-3.05s0-2.56-.61-3.23a2.69,2.69,0,0,0-1.77-.85,11.09,11.09,0,0,0-21.58,0,2.69,2.69,0,0,0-1.77.85c-.61.67-.61,1.65-.61,3.23s0,2.44.55,3.05a2.69,2.69,0,0,0,2.32.86,4.17,4.17,0,0,0,1.1-.13l-.25-1.22c-.18.07-1.64.31-2.25-.36-.25-.25-.25-1-.25-2.2,0-1.34,0-2.07.31-2.37a2.35,2.35,0,0,1,1.89-.49,10.3,10.3,0,0,1,9.38-8.54c4.76-.18,9.15,3.48,10.12,8.54a2.48,2.48,0,0,1,1.89.49c.25.3.31,1,.31,2.37a4.75,4.75,0,0,1-.25,2.26c-.61.67-2,.43-2.25.37a2.13,2.13,0,0,1-.55,1.52,2.31,2.31,0,0,1-.73.43,9.64,9.64,0,0,0,.42-2.63V25.23a8.69,8.69,0,0,0-8.65-8.66,8.6,8.6,0,0,0-8.6,8.66v2.93a8.58,8.58,0,0,0,3.91,7.25v3.35l-1.1,1.16c-8,1.65-13.41,6.46-13.41,11.95a.58.58,0,0,0,.61.61h37.3a.58.58,0,0,0,.61-.61C55.26,46.32,49.9,41.57,41.91,39.92Zm-1,.79-2.56,2.56-1-1L40,39.74ZM28.56,28.16V25.29A7.48,7.48,0,0,1,36,17.85a7.66,7.66,0,0,1,7.56,7.44v2.87A6.74,6.74,0,0,1,43,31.08c-.49.06-1.1.12-1.77.18-1.16.07-2.32.13-3.53.13a1.63,1.63,0,0,0-1.41-.8H35.7a1.65,1.65,0,0,0,0,3.3h.54a1.58,1.58,0,0,0,1.59-1.28c1.16,0,2.25-.07,3.35-.13.37,0,.67-.06,1-.06a8,8,0,0,1-2.32,2.2.63.63,0,0,0-.3.55v3.35l-3.42,3.41c-.06.06-.12.12-.12.18s-.06-.12-.12-.18l-3.35-3.41V35.1a.64.64,0,0,0-.31-.54A7.42,7.42,0,0,1,28.56,28.16Zm8.17,4a.42.42,0,0,1-.43.43h-.54a.43.43,0,0,1,0-.86h.54A.46.46,0,0,1,36.73,32.18ZM32,39.74,34.6,42.3l-1,1-2.56-2.56ZM36.3,51.26v-1.4h-.6v1.4H18c.42-4.45,5.12-8.47,11.82-10l3.36,3.35a.52.52,0,0,0,.42.19.54.54,0,0,0,.43-.19l1.71-1.7v1.4h.6v-1.4L38,44.61a.54.54,0,0,0,.43.19.52.52,0,0,0,.42-.19l3.36-3.35c6.7,1.53,11.46,5.55,11.82,10Zm-.6-5.06h.6V48h-.6Z"/></g></g></svg>