<svg xmlns="http://www.w3.org/2000/svg" viewBox="0 0 72 72"><defs><style>.cls-1{fill:#ffc3d0;fill-rule:evenodd;}.cls-2{fill:#e03353;}</style></defs><g id="Layer_2" data-name="Layer 2"><g id="Layer_1-2" data-name="Layer 1"><path class="cls-1" d="M36,0A36,36,0,1,1,0,36,36,36,0,0,1,36,0Z"/><path class="cls-2" d="M33.13,18.54a19.14,19.14,0,0,0-8.4,1.75,6.39,6.39,0,0,0-3.95,4.64V44.44c0,2.18,1.7,3.88,3.93,5a19.12,19.12,0,0,0,8.42,1.77A20.26,20.26,0,0,0,40.25,50a11.94,11.94,0,1,0,5.23-22.68c0-1.12,0-1.6,0-2.39-.31-2.29-2.3-3.8-3.94-4.64A19.18,19.18,0,0,0,33.13,18.54Zm0,2.41a17,17,0,0,1,7.37,1.52c1.58.79,2.4,1.72,2.58,2.52.16,1.43-1.39,2.59-2.58,3.19a17.12,17.12,0,0,1-7.37,1.51,17.12,17.12,0,0,1-7.37-1.51c-1.24-.77-2.6-1.48-2.59-3.08.12-.82.93-1.81,2.59-2.63A17,17,0,0,1,33.13,21Zm-10,8.46a9.64,9.64,0,0,0,1.56.94,19,19,0,0,0,8.4,1.76,23.43,23.43,0,0,0,2.95-.2,11.57,11.57,0,0,0-1.52,2.53c-.46,0-1,0-1.43,0A17.08,17.08,0,0,1,25.77,33c-1.8-.9-2.6-2-2.6-2.87Zm22.31.3a9.56,9.56,0,1,1-9.56,9.55,9.53,9.53,0,0,1,9.56-9.55ZM23.17,34.17a10.6,10.6,0,0,0,1.53.94,19.31,19.31,0,0,0,8.43,1.76h.65a11.92,11.92,0,0,0-.25,2.4c-.13,0-.27,0-.4,0a17.08,17.08,0,0,1-7.36-1.5c-1.8-.9-2.6-2-2.6-2.88Zm0,4.78a9.84,9.84,0,0,0,1.54.93,19.12,19.12,0,0,0,8.42,1.77h.65A11.86,11.86,0,0,0,34.51,44c-.45,0-.91,0-1.38,0a17.07,17.07,0,0,1-7.36-1.51c-1.8-.9-2.6-2-2.6-2.87Zm0,4.78a10.56,10.56,0,0,0,1.53.93,19.17,19.17,0,0,0,8.43,1.77,23.39,23.39,0,0,0,2.68-.16,11.61,11.61,0,0,0,1.88,2,19.61,19.61,0,0,1-4.56.53,17,17,0,0,1-7.35-1.52c-1.8-.9-2.61-2-2.61-2.86Z"/></g></g></svg>