<svg xmlns="http://www.w3.org/2000/svg" viewBox="0 0 72 72"><defs><style>.cls-1{fill:#ffc3d0;fill-rule:evenodd;}.cls-2{fill:#e03353;}</style></defs><g id="Layer_2" data-name="Layer 2"><g id="Layer_1-2" data-name="Layer 1"><path class="cls-1" d="M36,0A36,36,0,1,1,0,36,36,36,0,0,1,36,0Z"/><path class="cls-2" d="M36,23.56a1.29,1.29,0,0,1,.7.23L51.05,35.1a1.35,1.35,0,0,1,.25,1.64,1.17,1.17,0,0,1-1.64.14L36,26.13,22.34,36.88a1.16,1.16,0,0,1-1.64-.14A1.28,1.28,0,0,1,21,35.1L26.18,31V24.69a1.13,1.13,0,0,1,1.13-1.13h3a1.13,1.13,0,0,1,1.13,1.13v2.13l3.84-3A1.12,1.12,0,0,1,36,23.56Zm-6.8,2.26h-.75V29.2l.75-.6ZM45.07,34.6l2.27,1.79V47.31a1.13,1.13,0,0,1-1.14,1.13H39.4a1.13,1.13,0,0,1-1.13-1.13V40.9H33.74v6.41a1.13,1.13,0,0,1-1.14,1.13H25.8a1.13,1.13,0,0,1-1.13-1.13V36.39l2.27-1.79V46.18h4.53V39.77a1.14,1.14,0,0,1,1.13-1.13h6.8a1.14,1.14,0,0,1,1.14,1.13v6.41h4.53Z"/></g></g></svg>