<svg xmlns="http://www.w3.org/2000/svg" viewBox="0 0 111 111"><defs><style>.cls-1{fill:#4d2a90;fill-rule:evenodd;opacity:0.2;}.cls-2{fill:none;stroke:#4d2a90;stroke-miterlimit:10;stroke-width:2px;}</style></defs><g id="Layer_2" data-name="Layer 2"><g id="Layer_1-2" data-name="Layer 1"><path class="cls-1" d="M55.5,0A55.5,55.5,0,1,1,0,55.5,55.5,55.5,0,0,1,55.5,0Z"/><path class="cls-2" d="M33,55.5a22.51,22.51,0,0,1,37.26-17l-4.17,3.61,10.72.35L78,31.81l-4.13,3.58A27.25,27.25,0,0,0,30.68,66.75"/><path class="cls-2" d="M78,55.5a22.51,22.51,0,0,1-37.26,17l4.17-3.61-10.72-.35L33,79.19l4.13-3.58A27.25,27.25,0,0,0,80.32,44.25"/></g></g></svg>