<svg xmlns="http://www.w3.org/2000/svg" viewBox="0 0 111 111"><defs><style>.cls-1{fill:#4d2a90;fill-rule:evenodd;opacity:0.2;}.cls-2{fill:none;stroke:#4d2a90;stroke-miterlimit:10;stroke-width:2px;}</style></defs><g id="Layer_2" data-name="Layer 2"><g id="Layer_1-2" data-name="Layer 1"><path class="cls-1" d="M55.5,0A55.5,55.5,0,1,1,0,55.5,55.5,55.5,0,0,1,55.5,0Z"/><path class="cls-2" d="M41.82,53.45a13.68,13.68,0,1,0,27.36,0v-11a13.68,13.68,0,0,0-27.36,0Z"/><path class="cls-2" d="M59.6,37a6.84,6.84,0,0,1-6.84,6.84H43.19"/><path class="cls-2" d="M82.86,87.65v-4.1a10.94,10.94,0,0,0-10.94-11H39.08a10.94,10.94,0,0,0-10.94,11v4.1"/><path class="cls-2" d="M74.66,42.5a19.16,19.16,0,0,0-38.32,0"/><path class="cls-2" d="M74.66,42.5h3.47a2,2,0,0,1,2,2v6.95a2,2,0,0,1-2,2H74.66a0,0,0,0,1,0,0V42.5A0,0,0,0,1,74.66,42.5Z"/><path class="cls-2" d="M32.87,42.5h3.47a0,0,0,0,1,0,0V53.45a0,0,0,0,1,0,0H32.87a2,2,0,0,1-2-2V44.5A2,2,0,0,1,32.87,42.5Z"/><path class="cls-2" d="M74.66,53.45v1.37a4.11,4.11,0,0,1-4.11,4.1H58.24"/><circle class="cls-2" cx="55.5" cy="58.92" r="2.74"/><line class="cls-2" x1="55.5" y1="84.92" x2="48.66" y2="72.6"/><line class="cls-2" x1="62.34" y1="72.6" x2="55.5" y2="84.92"/><polyline class="cls-2" points="67.81 72.6 67.81 79.44 55.5 86.28 43.19 79.44 43.19 72.6"/></g></g></svg>