<svg xmlns="http://www.w3.org/2000/svg" viewBox="0 0 72 72"><defs><style>.cls-1{fill:#ffc3d0;fill-rule:evenodd;}.cls-2{fill:#e03353;}</style></defs><g id="Layer_2" data-name="Layer 2"><g id="Layer_1-2" data-name="Layer 1"><path class="cls-1" d="M36,0A36,36,0,1,1,0,36,36,36,0,0,1,36,0Z"/><path class="cls-2" d="M39.8,37.43V34.17a6.06,6.06,0,0,0,1.68-3.88,2.36,2.36,0,0,0,1.39-2.18v-1a2.47,2.47,0,0,0-1.3-2.13,10.58,10.58,0,0,0,.25-4.47c-.88-3.43-7-3.76-9.64-3.39a3.37,3.37,0,0,0-2.36,1.26,3.63,3.63,0,0,0-.42.91,2.38,2.38,0,0,0-1.26.92c-1.1,1.22-.38,3.39.59,5.19A2.4,2.4,0,0,0,28,27.07v1a2.36,2.36,0,0,0,1.39,2.18,5.77,5.77,0,0,0,2.06,4.26v2.88c0,.63-1.13,1.42-2.48,1.76a20.21,20.21,0,0,0-3.87,1.42C22.29,42,20.9,43.53,20.9,45.37v3.35a.84.84,0,0,0,.84.83h16.5a.84.84,0,0,0,.84-.83.85.85,0,0,0-.84-.84H22.58V45.37c0-2.38,5-4.13,6.74-4.59,1.89-.46,3.79-1.68,3.79-3.35V35.55a6.35,6.35,0,0,0,2.18.42h.22a6.15,6.15,0,0,0,2.6-.58v2a2.49,2.49,0,0,0,.76,1.76.85.85,0,0,0,.63.25,1,1,0,0,0,.59-.21.84.84,0,0,0,0-1.17A.91.91,0,0,1,39.8,37.43Zm-.09-7.27A4.16,4.16,0,0,1,38.62,33a.86.86,0,0,0-.55.5,4.12,4.12,0,0,1-2.65.92h-.21A4.34,4.34,0,0,1,33,33.8v-.13h0a4.37,4.37,0,0,1-2-3.59v-.42a.87.87,0,0,0-.76-.84.68.68,0,0,1-.63-.71v-1a.73.73,0,0,1,.47-.67.74.74,0,0,0,.5-.5.88.88,0,0,0-.08-.71c-1.27-2.09-1.52-3.55-1.18-3.93a.38.38,0,0,0,.12-.17.78.78,0,0,1,.68-.25.83.83,0,0,0,.67-.29.82.82,0,0,0,.17-.67.75.75,0,0,1,.17-.54,1.75,1.75,0,0,1,1.22-.54,8.8,8.8,0,0,1,1.6-.09c2.48,0,5.72.63,6.14,2.26a9.58,9.58,0,0,1-.42,4.43.73.73,0,0,0,.13.71.8.8,0,0,0,.63.33.73.73,0,0,1,.67.71V28.2a.72.72,0,0,1-.63.71.86.86,0,0,0-.76.83Zm14.78,9.2a.85.85,0,0,0-1,.66l-.13.63a6.11,6.11,0,0,0-10.31.59.81.81,0,0,0,.34,1.12A.83.83,0,0,0,44.56,42a4.39,4.39,0,0,1,3.87-2.3,4.49,4.49,0,0,1,3.79,2.13l-1.14-.16a.83.83,0,1,0-.3,1.63l2.91.46h.13a.86.86,0,0,0,.84-.71l.46-2.89C55.29,39.9,55,39.44,54.49,39.36Zm-1,6.64a.84.84,0,0,0-1.14.33,4.4,4.4,0,0,1-7.66.13l.76.25a.83.83,0,0,0,1.05-.54.81.81,0,0,0-.55-1.05l-2.82-.92a.77.77,0,0,0-1,.55l-.92,2.8a.8.8,0,0,0,.54,1,.59.59,0,0,0,.26,0,.86.86,0,0,0,.8-.58l.29-1a0,0,0,0,0,0,0,6.14,6.14,0,0,0,10.7,0A.82.82,0,0,0,53.48,46Z"/></g></g></svg>