<svg xmlns="http://www.w3.org/2000/svg" viewBox="0 0 111 111"><defs><style>.cls-1{fill:#fff;fill-rule:evenodd;}.cls-2{fill:#4d2a90;}</style></defs><g id="Layer_2" data-name="Layer 2"><g id="Layer_1-2" data-name="Layer 1"><path class="cls-1" d="M55.5,0A55.5,55.5,0,1,1,0,55.5,55.5,55.5,0,0,1,55.5,0Z"/><path class="cls-2" d="M36.5,68.54a1.9,1.9,0,0,0-1.89,1.9v8a1.9,1.9,0,1,0,3.79,0v-8A1.9,1.9,0,0,0,36.5,68.54Zm7.6-6.42A1.9,1.9,0,0,0,42.2,64V78.46a1.9,1.9,0,1,0,3.8,0V64A1.9,1.9,0,0,0,44.1,62.12Zm7.59-6.41a1.9,1.9,0,0,0-1.9,1.9V78.46a1.9,1.9,0,1,0,3.8,0V57.61A1.9,1.9,0,0,0,51.69,55.71ZM66.88,52.5A1.9,1.9,0,0,0,65,54.4V78.46a1.9,1.9,0,1,0,3.8,0V54.4A1.9,1.9,0,0,0,66.88,52.5Zm-7.6,6.41a1.91,1.91,0,0,0-1.89,1.91V78.46a1.9,1.9,0,1,0,3.79,0V60.82A1.91,1.91,0,0,0,59.28,58.91ZM74.47,46.08A1.9,1.9,0,0,0,72.57,48V78.46a1.9,1.9,0,1,0,3.8,0V48A1.9,1.9,0,0,0,74.47,46.08Zm5.68-15.31a1.88,1.88,0,0,0-1.88-1.83h-7.6a1.91,1.91,0,0,0,0,3.81h3L58.91,47.57l-6.37-3.19a1.9,1.9,0,0,0-2.19.35l-19,19.05a1.9,1.9,0,0,0,2.68,2.7l18-18.08,6.36,3.2a1.92,1.92,0,0,0,2.2-.36l15.74-15.8v3a1.9,1.9,0,1,0,3.8,0C80.17,37.85,80.17,31.34,80.15,30.77Z"/></g></g></svg>