<svg xmlns="http://www.w3.org/2000/svg" viewBox="0 0 111 111"><defs><style>.cls-1{fill:#fff;fill-rule:evenodd;}.cls-2{fill:#e03353;}</style></defs><g id="Layer_2" data-name="Layer 2"><g id="Layer_1-2" data-name="Layer 1"><path class="cls-1" d="M55.5,0A55.5,55.5,0,1,1,0,55.5,55.5,55.5,0,0,1,55.5,0Z"/><path class="cls-2" d="M70.87,68.54c2.62.67,2.77,3.9,2.62,5.77l2.46.15c.3-4.5-1.34-7.49-4.48-8.32-8.06-2-10-4.57-10.45-5.62a7.09,7.09,0,0,0,1.57-1.42c3.81-4.27,3.14-11.61,3.06-12.29-.37-8.39-6.49-10.41-10.08-10.26C52,36.4,45.87,38.42,45.5,46.81c-.08.68-.67,8,3.06,12.29a9.38,9.38,0,0,0,1.86,1.57c-.59,1-2.76,3.52-10.37,5.47-3.21.83-4.78,3.82-4.48,8.32L38,74.31c-.15-1.87.07-5.1,2.61-5.7,8.36-2.09,11.12-5,12-6.89a10.47,10.47,0,0,0,2.77.38h.29a10.06,10.06,0,0,0,3.06-.45C59.68,63.44,62.37,66.44,70.87,68.54ZM55.65,59.62h-.08a6.56,6.56,0,0,1-5.15-2.17C47.29,53.93,48,47.11,48,47V47c.37-7.34,5.75-7.94,7.32-7.94h.29c1.2-.07,7.24.08,7.62,7.94V47c0,.07.67,6.82-2.47,10.41A6.5,6.5,0,0,1,55.65,59.62Zm25.3,2c2.84-3.22,2.39-8.61,2.31-9.14-.29-6.29-4.92-7.86-7.68-7.79s-7.39,1.42-7.69,7.79c-.08.6-.52,6,2.31,9.14a6.55,6.55,0,0,0,5.23,2.25h.3a8.16,8.16,0,0,0,2-.3c.82,1.42,3,3.52,8.88,4.94,1.65.45,1.72,2.55,1.65,3.82l2.46.16c.22-3.45-1-5.77-3.51-6.45C82,64.72,80.43,63.07,80,62.32A4.23,4.23,0,0,0,81,61.57Zm-5.37-.22h0a4.23,4.23,0,0,1-3.51-1.43c-2.17-2.47-1.72-7.26-1.72-7.26v-.08c.23-5.09,3.88-5.47,5-5.47h.23c.82,0,4.92.08,5.15,5.47v.08c0,.07.44,4.79-1.72,7.26A4.17,4.17,0,0,1,75.58,61.35Zm-51.8,4.72c-2.46.6-3.73,3-3.51,6.37l2.46-.16c-.07-1.27,0-3.37,1.65-3.82,6-1.49,8.13-3.52,8.88-4.94a8.16,8.16,0,0,0,2,.3h.23a7.06,7.06,0,0,0,5.22-2.25C43.56,58.35,43.11,53,43,52.43c-.3-6.37-4.93-7.86-7.69-7.79S28,46.06,27.66,52.43c-.07.6-.52,6,2.31,9.14a3.57,3.57,0,0,0,1,.9C30.57,63.15,29,64.79,23.78,66.07ZM30.2,52.58v-.07c.22-5.1,3.88-5.47,5-5.47h.22c.82,0,4.93.07,5.15,5.47v.07c0,.08.45,4.8-1.71,7.27a4.36,4.36,0,0,1-3.51,1.42h0a4.47,4.47,0,0,1-3.51-1.42C29.75,57.38,30.2,52.58,30.2,52.58Z"/></g></g></svg>